PathFileType	4	(X/Y/Z)	Test12_result.trc
DataRate	CameraRate	NumFrames	NumMarkers	Units	OrigDataRate	OrigDataStartFrame	OrigNumFrames
100	100	4	56	mm	100	247	493
Frame#	Time	PELO			PELA			PELL			PELP			LFEO			LFEA			LFEL			LFEP			LTIO			LTIA			LTIL			LTIP			LFOO			LFOA			LFOL			LFOP			LTOO			LTOA			LTOL			LTOP			RFEO			RFEA			RFEL			RFEP			RTIO			RTIA			RTIL			RTIP			RFOO			RFOA			RFOL			RFOP			RTOO			RTOA			RTOL			RTOP			LASI			RASI			LPSI			RPSI			LTHI			LKNE			LTIB			LANK			LHEE			LTOE			LFMH			LVMH			RTHI			RKNE			RTIB			RANK			RHEE			RTOE			RFMH			RVMH		
		X1	Y1	Z1	X2	Y2	Z2	X3	Y3	Z3	X4	Y4	Z4	X5	Y5	Z5	X6	Y6	Z6	X7	Y7	Z7	X8	Y8	Z8	X9	Y9	Z9	X10	Y10	Z10	X11	Y11	Z11	X12	Y12	Z12	X13	Y13	Z13	X14	Y14	Z14	X15	Y15	Z15	X16	Y16	Z16	X17	Y17	Z17	X18	Y18	Z18	X19	Y19	Z19	X20	Y20	Z20	X21	Y21	Z21	X22	Y22	Z22	X23	Y23	Z23	X24	Y24	Z24	X25	Y25	Z25	X26	Y26	Z26	X27	Y27	Z27	X28	Y28	Z28	X29	Y29	Z29	X30	Y30	Z30	X31	Y31	Z31	X32	Y32	Z32	X33	Y33	Z33	X34	Y34	Z34	X35	Y35	Z35	X36	Y36	Z36	X37	Y37	Z37	X38	Y38	Z38	X39	Y39	Z39	X40	Y40	Z40	X41	Y41	Z41	X42	Y42	Z42	X43	Y43	Z43	X44	Y44	Z44	X45	Y45	Z45	X46	Y46	Z46	X47	Y47	Z47	X48	Y48	Z48	X49	Y49	Z49	X50	Y50	Z50	X51	Y51	Z51	X52	Y52	Z52	X53	Y53	Z53	X54	Y54	Z54	X55	Y55	Z55	X56	Y56	Z56
	
309	3.080000	-270.525274	899.727904	-192.017667	-109.500671	881.163593	-188.593378	-266.554985	904.280898	-354.032450	-252.070026	1060.724414	-187.040991	-290.933954	485.243658	-256.215477	118.147599	462.560345	-334.199980	-369.682411	472.433263	-665.579212	-271.065112	901.493808	-273.060344	-403.954773	91.013291	-224.020523	-30.128399	-18.809617	-256.491539	-443.668004	70.676458	-612.441296	-296.538654	465.693741	-254.618930	-286.672476	73.027812	-232.993075	-277.808226	238.296481	-248.052675	-286.321665	57.928061	-398.495293	-452.625499	81.823595	-234.147268	-231.354803	70.095887	-232.608347	-228.400044	125.185429	-237.628217	-231.237879	65.062633	-287.775733	-286.672475	73.027821	-232.993059	-121.112130	510.785523	-93.845134	257.010896	659.916246	-9.312311	-36.126250	525.499177	-499.952718	-269.985508	897.962341	-110.975031	-183.991698	113.882090	-120.560174	169.340889	49.053290	10.943051	-50.100675	116.784010	-478.894636	-124.265975	490.878163	-95.185069	-77.238808	90.791761	-80.495951	-63.163661	252.172074	-67.891318	-32.944380	99.130153	-236.610072	-232.933029	107.753061	-123.764732	-25.340742	85.137965	-66.073041	-20.649018	138.931383	-61.871504	-10.575933	87.917419	-118.111084	-77.238809	90.791736	-80.495966	-216.197085	986.492251	-319.209694	-222.606722	979.141826	-57.650011	-412.189275	1007.475571	-240.710565	-415.532267	1002.818825	-138.680992	-292.697338	649.477142	-339.567819	-301.885277	483.462118	-313.144515	-381.214045	253.580338	-300.528713	-417.128888	84.437363	-264.421240	-460.720033	60.097585	-219.725727	-284.914902	51.586653	-218.491434	-242.026797	44.567325	-190.891149	-272.540248	38.931551	-269.645395	-220.733003	708.698466	-2.623191	-132.882577	508.747646	-37.599632	-181.652498	332.002535	-37.477201	-201.307039	103.987863	-82.464519	-233.042723	75.954009	-142.297463	-71.476464	64.021722	-94.496027	-26.843047	73.273003	-114.383696	-69.917232	62.616611	-55.153734
310	3.090000	-256.999483	898.438619	-191.881821	-95.950493	879.854956	-190.106845	-254.684767	903.020580	-353.927902	-238.475279	1059.432127	-187.064963	-286.765397	484.383478	-256.475888	121.165089	453.307015	-337.866681	-369.128707	473.845415	-665.258404	-258.367413	900.219322	-272.914426	-403.243000	90.936135	-224.037617	-30.711239	-22.444297	-261.573838	-448.059003	72.197963	-612.218221	-292.538258	464.883416	-254.868189	-285.959478	72.982591	-233.058325	-277.149024	238.251231	-248.150131	-285.676715	57.854607	-398.558102	-451.915504	81.730803	-234.141537	-230.640802	70.066521	-232.697266	-227.703978	125.156050	-237.727867	-230.546557	65.023860	-287.863837	-285.959477	72.982595	-233.058324	-103.150246	510.611943	-95.314952	273.494480	662.858855	-8.814140	-17.061294	528.283119	-501.269151	-255.631639	896.658177	-110.849265	-143.256284	110.638403	-119.913818	211.754008	66.706828	15.624317	-5.969196	118.814219	-476.868964	-105.161850	490.550103	-96.548773	-35.502961	93.645854	-79.465751	-30.465179	255.602505	-67.341118	8.736116	103.952544	-235.478616	-191.772608	101.786184	-123.240398	16.586920	90.932382	-64.874220	18.266185	144.917925	-60.832692	31.333271	94.367931	-116.878520	-35.502964	93.645827	-79.465763	-203.963962	985.219556	-319.599067	-207.700608	977.822790	-58.004347	-398.991077	1006.316816	-238.979145	-401.292807	1001.391716	-136.989024	-285.753319	648.943450	-339.407931	-298.217658	482.918170	-313.315343	-379.923012	253.664258	-300.522793	-416.987032	84.614948	-264.288813	-460.625821	60.431803	-219.380790	-284.824611	51.755044	-218.583061	-241.904001	44.520405	-190.998034	-272.560267	38.901592	-269.764302	-205.125686	707.371237	-2.751979	-115.067872	508.165644	-39.116935	-154.183939	329.098597	-38.144395	-160.387298	100.024915	-81.928711	-190.658540	69.942049	-141.566281	-28.834443	67.427771	-93.504871	15.740046	78.644961	-113.482325	-26.966170	66.084944	-54.262633
311	3.100000	-243.411221	896.845622	-191.756290	-82.349751	878.285675	-191.646779	-242.762643	901.517484	-353.815058	-224.862230	1057.839283	-187.040827	-282.389593	483.435533	-256.751055	124.123129	444.148404	-341.810875	-368.563819	475.322438	-664.844111	-245.612111	898.670837	-272.769551	-402.526962	90.863154	-224.051814	-31.458139	-26.248996	-266.734960	-452.511665	73.850952	-611.919055	-288.340422	463.990024	-255.131345	-285.250072	72.894877	-233.129385	-276.425248	238.163307	-248.215173	-285.047972	57.777113	-398.630223	-451.205439	81.664794	-234.133167	-229.931614	69.971573	-232.794798	-226.990005	125.061032	-237.823388	-229.864247	64.932324	-287.961726	-285.250073	72.894876	-233.129394	-85.470774	509.906777	-96.824331	289.780186	664.874629	-7.766731	2.233466	530.712081	-502.575829	-241.210419	895.020489	-110.743057	-103.121017	108.389775	-119.401078	252.426880	84.967208	19.241831	36.479121	122.240201	-475.075756	-86.356404	489.758042	-97.957253	5.388102	97.013349	-78.988840	2.071442	259.031565	-67.004731	48.968035	109.445663	-235.032022	-151.119703	97.043808	-122.697365	57.557379	97.003175	-64.419346	56.451824	151.009252	-60.424656	72.084008	101.147273	-116.433747	5.388103	97.013328	-78.988847	-191.703876	983.704809	-319.948333	-192.750769	976.163796	-58.363884	-385.737269	1004.834966	-237.201139	-386.978580	999.596066	-135.266747	-278.696289	648.277442	-339.278433	-294.370574	482.307510	-313.489158	-378.548872	253.749506	-300.502364	-416.847307	84.814857	-264.143665	-460.536995	60.803007	-219.006420	-284.741959	51.875342	-218.684744	-241.784387	44.476616	-191.120661	-272.585426	38.871176	-269.892423	-189.709607	705.465567	-2.934757	-97.603643	507.028626	-40.693003	-126.936446	326.272121	-38.819857	-119.961440	97.046837	-81.497035	-148.887189	65.149477	-140.836862	12.780586	71.360343	-93.147478	57.194165	84.594198	-113.260144	15.092121	70.192399	-53.927548
312	3.110000	-229.751344	894.967078	-191.651133	-68.690671	876.467213	-193.230923	-230.787480	899.784724	-353.703638	-211.213009	1055.963305	-186.983327	-277.764968	482.391489	-257.042647	127.041718	435.113932	-346.213608	-368.120690	476.871993	-664.302985	-232.794071	896.864142	-272.635487	-401.794135	90.798019	-224.054732	-32.386575	-30.249659	-272.074541	-457.116085	75.678540	-611.522034	-283.904911	463.006019	-255.409594	-284.530954	72.776409	-233.203266	-275.635327	238.045291	-248.242284	-284.428300	57.710331	-398.708904	-450.482615	81.626139	-234.111814	-229.213732	69.826499	-232.900414	-226.248533	124.916119	-237.913410	-229.179499	64.804489	-288.068949	-284.530966	72.776400	-233.203286	-68.058969	508.708240	-98.358085	305.922588	666.014539	-6.456453	21.507296	532.692677	-503.889343	-226.708672	893.069963	-110.666792	-63.694857	107.090383	-119.008153	291.283525	103.699530	21.999034	77.288972	126.839217	-473.464860	-67.839629	488.536322	-99.395246	45.412864	100.839387	-79.091851	34.449174	262.502476	-66.861388	87.651922	115.517220	-235.307483	-111.114091	93.478260	-122.108676	97.588523	103.293084	-64.752913	93.933952	157.180784	-60.676092	111.668197	108.185700	-116.824786	45.412868	100.839374	-79.091850	-179.409519	981.960031	-320.273711	-177.737397	974.184958	-58.741580	-372.416296	1003.052929	-235.374789	-372.578229	997.457951	-133.512552	-271.533169	647.477790	-339.179628	-290.326457	481.624115	-313.661116	-377.083028	253.838699	-300.452879	-416.707887	85.045746	-263.973372	-460.447431	61.224345	-218.587503	-284.661171	51.962996	-218.794061	-241.668326	44.436922	-191.259993	-272.622541	38.838552	-270.025147	-174.408247	703.046048	-3.146601	-80.438895	505.393126	-42.304890	-99.984783	323.569934	-39.491655	-80.157453	95.024650	-81.161375	-107.853092	61.521057	-140.109265	53.359115	75.743269	-93.448788	97.451020	91.092852	-113.769527	56.222017	74.909644	-54.199680
